<?xml version="1.0" encoding="utf-8"?>
<!-- Generator: Adobe Illustrator 16.0.4, SVG Export Plug-In . SVG Version: 6.00 Build 0)  -->
<!DOCTYPE svg PUBLIC "-//W3C//DTD SVG 1.1//EN" "http://www.w3.org/Graphics/SVG/1.1/DTD/svg11.dtd">
<svg version="1.1" id="Layer_1" xmlns="http://www.w3.org/2000/svg" xmlns:xlink="http://www.w3.org/1999/xlink" x="0px" y="0px"
	 width="144px" height="144px" viewBox="0 0 144 144" enable-background="new 0 0 144 144" xml:space="preserve">
<path d="M99.877,49.317v-3.972c0-8.217-6.661-14.878-14.878-14.878h-7.374c3.471-10.801,13.647-18.611,25.6-18.611
	c0,0,5.734-0.113,5.734-5.748c0-5.735-5.735-5.735-5.735-5.735c-18.33,0-33.641,12.887-37.388,30.093h-8.315
	c-8.217,0-14.878,6.661-14.878,14.878v3.972c-13.816,9.245-22.916,24.987-22.916,42.857c0,28.461,23.072,51.533,51.533,51.533
	c28.46,0,51.532-23.072,51.532-51.533C122.793,74.304,113.692,58.561,99.877,49.317z M93.408,73.391
	c-5.223-5.89-6.56-13.233-2.987-16.402c3.573-3.168,10.703-0.962,15.926,4.929c5.223,5.89,6.56,13.233,2.987,16.4
	C105.76,81.487,98.631,79.28,93.408,73.391z"/>
</svg>
