<?xml version="1.0" encoding="utf-8"?>
<!-- Generator: Adobe Illustrator 16.0.4, SVG Export Plug-In . SVG Version: 6.00 Build 0)  -->
<!DOCTYPE svg PUBLIC "-//W3C//DTD SVG 1.1//EN" "http://www.w3.org/Graphics/SVG/1.1/DTD/svg11.dtd">
<svg version="1.1" id="Layer_1" xmlns="http://www.w3.org/2000/svg" xmlns:xlink="http://www.w3.org/1999/xlink" x="0px" y="0px"
	 width="144px" height="144px" viewBox="0 0 144 144" enable-background="new 0 0 144 144" xml:space="preserve">
<rect x="-31.595" y="205.405" fill="#FFCA33" width="11.595" height="11.595"/>
<path d="M24.254,4.374L72,52.119l47.746-47.746c5.49-5.491,14.393-5.491,19.883,0.001c5.49,5.49,5.49,14.391,0,19.882L91.883,72.001
	l47.746,47.747c5.49,5.49,5.49,14.391,0,19.883c-5.49,5.488-14.393,5.488-19.883,0L72,91.883l-47.744,47.748
	c-5.492,5.488-14.393,5.488-19.885,0c-5.489-5.492-5.489-14.393,0-19.885l47.747-47.745L4.371,24.256
	c-5.489-5.491-5.489-14.392,0-19.882C9.863-1.117,18.764-1.117,24.254,4.374z"/>
</svg>
