<?xml version="1.0" encoding="utf-8"?>
<!-- Generator: Adobe Illustrator 16.0.4, SVG Export Plug-In . SVG Version: 6.00 Build 0)  -->
<!DOCTYPE svg PUBLIC "-//W3C//DTD SVG 1.1//EN" "http://www.w3.org/Graphics/SVG/1.1/DTD/svg11.dtd">
<svg version="1.1" id="Layer_1" xmlns="http://www.w3.org/2000/svg" xmlns:xlink="http://www.w3.org/1999/xlink" x="0px" y="0px"
	 width="144px" height="144px" viewBox="0 0 144 144" enable-background="new 0 0 144 144" xml:space="preserve">
<rect x="-31.595" y="205.405" fill="#FFCA33" width="11.595" height="11.595"/>
<path d="M144,72c0,5.846-4.738,10.584-10.584,10.584H10.583C4.738,82.584,0,77.846,0,72l0,0c0-5.845,4.738-10.583,10.583-10.583
	h122.833C139.262,61.417,144,66.155,144,72L144,72z"/>
<path d="M144,10.583c0,5.846-4.738,10.584-10.584,10.584H10.583C4.738,21.167,0,16.429,0,10.583l0,0C0,4.738,4.738,0,10.583,0
	h122.833C139.262,0,144,4.738,144,10.583L144,10.583z"/>
<path d="M144,133.416c0,5.846-4.738,10.584-10.584,10.584H10.583C4.738,144,0,139.262,0,133.416l0,0
	c0-5.846,4.738-10.584,10.583-10.584h122.833C139.262,122.832,144,127.57,144,133.416L144,133.416z"/>
</svg>
