<?xml version="1.0" encoding="utf-8"?>
<!-- Generator: Adobe Illustrator 16.0.4, SVG Export Plug-In . SVG Version: 6.00 Build 0)  -->
<!DOCTYPE svg PUBLIC "-//W3C//DTD SVG 1.1//EN" "http://www.w3.org/Graphics/SVG/1.1/DTD/svg11.dtd">
<svg version="1.1" xmlns="http://www.w3.org/2000/svg" xmlns:xlink="http://www.w3.org/1999/xlink" x="0px" y="0px"
	 width="261.077px" height="89.235px" viewBox="0 0 261.077 89.235" enable-background="new 0 0 261.077 89.235"
	 xml:space="preserve">
<g id="Lineart" display="none">
	<g display="inline">
		<defs>
			<rect id="SVGID_1_" x="-22.181" y="-22.643" width="519.12" height="126"/>
		</defs>
		<clipPath id="SVGID_2_">
			<use xlink:href="#SVGID_1_"  overflow="visible"/>
		</clipPath>
		<g transform="matrix(1 0 0 1 0 -1.907349e-06)" clip-path="url(#SVGID_2_)">
			
				<image overflow="visible" width="4327" height="1050" xlink:href="A237E3D970CB8CE3.jpg"  transform="matrix(0.12 0 0 0.12 -22.1812 -22.6426)">
			</image>
		</g>
	</g>
</g>
<g id="Vector" display="none">
	<path display="inline" d="M165.893,55.464h17.073v-4.227c0-8.376-6.791-15.167-15.167-15.167c-8.376,0-15.167,6.791-15.167,15.167
		v8.454c0,8.375,6.791,15.166,15.167,15.166c8.376,0,15.167-6.791,15.167-15.166v-0.79h-17.073v2.861
		c0,1.007-0.816,1.822-1.823,1.822c-1.007,0-1.824-0.815-1.824-1.822v-6.299H165.893z M162.319,47.772
		c0-1.007,0.816-1.822,1.823-1.822c1.007,0,1.824,0.815,1.824,1.822v3.683h-3.646V47.772z"/>
	<circle display="inline" cx="234.924" cy="65.691" r="6.5"/>
	<g display="inline">
		<path fill="none" d="M69.091,47.297c-1.013,0-1.833,0.82-1.833,1.833v12.667c0,1.013,0.821,1.833,1.833,1.833
			c1.012,0,1.833-0.82,1.833-1.833V49.13C70.924,48.117,70.104,47.297,69.091,47.297z"/>
		<path d="M69.174,35.964c-8.422,0-15.25,6.828-15.25,15.25v8.5c0,8.422,6.828,15.25,15.25,15.25s15.25-6.828,15.25-15.25v-8.5
			C84.424,42.792,77.597,35.964,69.174,35.964z M67.258,61.797c0,1.013-0.821,1.833-1.833,1.833c-1.013,0-1.833-0.82-1.833-1.833
			V49.13c0-1.013,0.821-1.833,1.833-1.833c1.012,0,1.833,0.82,1.833,1.833V61.797z"/>
	</g>
	<path display="inline" fill="none" stroke="#000000" stroke-miterlimit="10" d="M48.958,48.071
		c0,14.45-11.715,26.166-26.167,26.166l0,0c-14.452,0-26.167-11.716-26.167-26.166V33.486c0-14.451,11.715-26.167,26.167-26.167l0,0
		c14.451,0,26.167,11.716,26.167,26.167V48.071z"/>
	<path display="inline" fill="none" stroke="#000000" stroke-miterlimit="10" d="M19.503,51.645c0,1.738-1.408,3.146-3.145,3.146
		l0,0c-1.738,0-3.146-1.407-3.146-3.146V29.91c0-1.737,1.408-3.145,3.146-3.145l0,0c1.737,0,3.145,1.408,3.145,3.145V51.645z"/>
	<circle display="inline" cx="256.968" cy="26.765" r="5.481"/>
	<path display="inline" d="M89.528,37.965c0,0,0-3.326-6.542-3.326s-6.542,3.326-6.542,3.326v32.998c0,0,0,3.326,6.542,3.326
		s6.542-3.325,6.542-3.325V37.965z"/>
	<path display="inline" d="M147.535,58.624V9.623c0,0,0-6.228-12.25-6.228s-12.25,6.228-12.25,6.228v49.001l12.25,15.666
		L147.535,58.624z"/>
	<path display="inline" d="M250.446,43.93v26.092c0,0,0,3.318,6.523,3.318c6.522,0,6.522-3.318,6.522-3.318V43.93l-6.522-8.341
		L250.446,43.93z"/>
	<path display="inline" d="M118.035,58.624V9.623c0,0,0-6.228-12.25-6.228s-12.25,6.228-12.25,6.228v49.001l12.25,15.666
		L118.035,58.624z"/>
</g>
<g id="BlackTrace">
	<g id="Shadow">
		<g>
			<g>
				<path d="M26.819,47.576c0,0-0.646,5.716-1,7.86c-0.312,1.89,1.125,1.921,1.125,1.921h9.709c0,0-1,6.625-8.666,6.459
					c-8.943-0.193-7.873-10.903-7.75-13.334c0.256-5.083,3.145-13.812,3.145-13.812s0.814-2.812,3.064-2.812
					c2.688,0,2.029,3.875,2.029,3.875S28.36,38.573,28,40.365c-0.192,0.957,0.24,1.289,1.068,1.32
					c6.484,0,16.538,0.076,22.047,0.076c2.25,0,2.828-1.836,2.828-1.836s4.552-23.321-23.625-23.321
					C15.017,16.354,8.36,32.857,8.36,32.857S0.804,50.062,3.479,63.043c1.163,5.645,2.368,7.336,4.007,10.023
					c0,0,5.843,9.838,16.917,11.215c11,1.368,16.666-1.924,21.166-7.299s5.635-20.538,6.75-27.75
					c0.562-3.638-0.816-3.638-2.518-3.938c0,0-14.701-0.062-20.514,0C27.094,45.318,26.819,47.576,26.819,47.576z"/>
				<path d="M29.101,87.091c-1.566,0-3.251-0.11-5.006-0.329C11.945,85.251,5.601,74.788,5.337,74.343l-0.304-0.495
					c-1.518-2.47-2.829-4.603-4.003-10.3c-0.979-4.755-1.412-12.501-0.618-17.303c1.479-8.938,5.45-13.917,5.659-14.393
					c0.264-0.657,7.349-17.75,23.904-17.75l0.385,0.003c9.886,0,17.191,2.758,21.672,8.198c3.281,3.984,4.424,2.353,4.686,5.93
					c0.241,3.305-0.28,11.969-0.32,12.172l-0.069,0.271c-0.314,0.998-1.274,2.515-3.093,3.212c1.245,0.903,2.043,2.562,1.554,5.727
					c-0.197,1.274-0.395,2.8-0.611,4.477c-1.068,8.239-2.53,19.524-6.692,24.496C42.562,84.469,36.892,87.091,29.101,87.091z
					 M29.975,19.102c-13.152,0-19.238,14.548-19.298,14.695c-0.1,0.23-7.229,16.709-4.75,28.741
					c0.997,4.837,1.939,6.371,3.365,8.692l0.328,0.534c0.064,0.107,5.417,8.833,15.091,10.036c1.552,0.192,3.028,0.29,4.389,0.29
					c6.343,0,10.559-1.944,14.551-6.713c3.226-3.854,4.635-14.731,5.567-21.93c0.223-1.723,0.427-3.289,0.629-4.598
					c0.07-0.454,0.094-0.774,0.098-0.995c-0.09-0.016-0.183-0.031-0.264-0.045l-0.098-0.017c-1.794-0.007-14.831-0.058-20.244,0.001
					c-0.021,0.049-0.042,0.107-0.05,0.153c-0.012,0.126-0.493,4.376-0.855,6.909h11.123l-0.434,2.873
					c-0.449,2.971-3.295,8.589-10.856,8.589l-0.336-0.004c-2.971-0.063-5.377-1.071-7.151-2.994
					c-3.579-3.88-3.204-10.212-3.062-12.596l0.021-0.369c0.27-5.359,3.146-14.103,3.268-14.472c0.469-1.625,2.179-4.527,5.438-4.527
					c1.354,0,2.555,0.538,3.379,1.514c1.594,1.887,1.209,4.728,1.115,5.28c0-0.001,0-0.001,0-0.001c0.001,0-0.047,0.346-0.171,1.038
					c3.036,0.004,6.676,0.022,10.191,0.039c3.833,0.019,7.517,0.036,10.156,0.036c0.23,0,0.35-0.042,0.42-0.11
					c0.211-1.512,0.906-8.519-3.391-13.703c-3.49-4.21-9.487-6.344-17.826-6.344L29.975,19.102z M26.044,36.814
					c-0.108,0.177-0.208,0.382-0.27,0.578c-0.048,0.147-2.806,8.534-3.041,13.216l-0.023,0.412c-0.107,1.804-0.39,6.594,1.747,8.91
					c0.829,0.898,2.001,1.353,3.584,1.387l0.228,0.002c2.068,0,3.422-0.658,4.305-1.462h-5.629
					c-0.856-0.018-1.996-0.377-2.789-1.333c-0.525-0.633-1.091-1.754-0.803-3.496c0.34-2.056,0.976-7.677,0.982-7.733
					c0.152-1.248,0.914-2.908,2.434-3.822c-0.261-0.191-0.459-0.396-0.611-0.589c-0.441-0.56-0.905-1.537-0.608-3.012
					c0.335-1.667,0.448-2.473,0.449-2.48C26.027,37.208,26.042,37.006,26.044,36.814z"/>
			</g>
			<g>
				<path d="M87.444,47.509c-1.625,0-7.5-0.125-7.5-0.125s-1.5-0.25-2.25,1.75s-0.75,2-0.75,2s-2.75-4.625-8.125-4.875
					s-13.465,3.005-15.125,10.25c-1.708,7.459-8.792,27.138,8.583,28.375c0,0,9.625,1.084,12.542-7l-1.125,5
					c0,0-0.125,1.625,1.375,1.75s8.25,0,8.25,0s1,0.125,1.375-2.75s4.125-32.25,4.125-32.25S89.069,47.509,87.444,47.509z
					 M68.735,65.134c-0.333,2.333-1.583,9.834-3.833,9.584s-0.542-9.129-0.542-9.129s1.625-7.372,3.042-7.372
					S69.068,62.801,68.735,65.134z"/>
				<path d="M63.414,87.433c-0.697,0-1.178-0.04-1.355-0.059c-5.04-0.367-8.769-2.187-11.084-5.408
					c-4.729-6.58-1.989-17.161-0.352-23.482c0.245-0.945,0.466-1.8,0.634-2.533c1.816-7.927,10.103-12.204,16.979-12.204
					c0.236,0,0.471,0.005,0.7,0.016c3.185,0.148,5.619,1.5,7.305,2.895c1.018-1.287,2.402-1.782,3.542-1.782
					c0.13,0,0.24,0.005,0.329,0.013c0.822,0.018,5.876,0.122,7.333,0.122c1.117,0,2.121,0.438,2.828,1.233
					c1.199,1.348,1.091,3.16,1.03,3.684c-0.003,0.024-3.754,29.405-4.129,32.281c-0.58,4.447-2.875,4.928-3.835,4.928c0,0,0,0,0,0
					h-0.04c-0.459,0.008-3.174,0.055-5.423,0.055c-2.01,0-2.683-0.037-3.013-0.064c-1.441-0.12-2.461-0.867-3.055-1.851
					C69.486,86.673,66.625,87.433,63.414,87.433z M68.235,48.746c-4.235,0-10.79,2.581-12.104,8.321
					c-0.177,0.772-0.41,1.673-0.668,2.669c-1.417,5.474-3.79,14.635-0.428,19.312c1.434,1.995,3.861,3.089,7.42,3.342l0.102,0.01
					c0.044,0.005,0.363,0.033,0.857,0.033c2.654,0,7.359-0.701,9.053-5.397l4.791,1.397l-0.843,3.748
					c0.368,0.005,0.844,0.009,1.46,0.009c1.475,0,3.153-0.021,4.241-0.036c0.034-0.16,0.068-0.355,0.099-0.593
					c0.341-2.614,3.473-27.141,4.037-31.562c-2.024-0.026-5.318-0.094-6.166-0.112c-0.016,0.035-0.033,0.076-0.052,0.125
					l-2.579,6.876l-2.661-4.477c-0.078-0.127-2.18-3.474-6.092-3.655C68.55,48.749,68.393,48.746,68.235,48.746z M65.012,77.224
					c-0.127,0-0.256-0.007-0.385-0.021c-0.935-0.104-1.769-0.594-2.349-1.381c-1.594-2.163-1.082-7.016-0.373-10.705
					c1.913-8.678,3.84-9.399,5.497-9.399c0.937,0,1.81,0.411,2.457,1.157c2.155,2.485,1.359,8.553,1.351,8.613
					C69.726,75.89,67.118,77.224,65.012,77.224z"/>
			</g>
			<g>
				<ellipse cx="195.182" cy="78.567" rx="6.75" ry="6.249"/>
				<path d="M195.182,87.316c-5.101,0-9.25-3.925-9.25-8.749c0-1.887,0.247-7.319,1.325-8.751c1.679-2.229,4.82,0,7.926,0
					c5.1,0,9.25,3.926,9.25,8.751C204.432,83.392,200.282,87.316,195.182,87.316z M195.182,74.816c-2.344,0-4.25,1.683-4.25,3.751
					c0,2.067,1.907,3.749,4.25,3.749c2.343,0,4.25-1.682,4.25-3.749C199.432,76.499,197.525,74.816,195.182,74.816z"/>
			</g>
			<g>
				<path d="M113.868,69.683l8.133,15.25l14.583-16l6.75-51.583c0,0-0.5-4-10.583-4.667s-11.833,4.667-11.833,4.667L113.868,69.683z
					"/>
				<path d="M121.463,89.235l-10.18-19.088l7.26-53.578c0.086-0.263,2.232-6.445,12.515-6.445c0.588,0,1.208,0.02,1.859,0.063
					c11.558,0.764,10.292,6.151,10.418,7.161l-5.016,31.429l0.643,21.258L121.463,89.235z M116.454,69.218l6.086,11.412
					l11.668-12.801l6.561-50.14c-0.571-0.742-2.728-2.151-8.183-2.512c-0.535-0.036-1.045-0.052-1.529-0.052
					c-5.669,0-7.35,2.279-7.711,2.919L116.454,69.218z"/>
			</g>
			<g>
				<path d="M157.411,44.821c-13.317,0-16.55,11.537-16.55,11.537s-5.809,20.987,2.391,26.569c0,0,6.489,4.666,15.17-0.009
					c7.415-3.993,8.345-12.654,8.345-12.654s0.125-2.031-1.316-1.977c-1.809,0.068-13.706,0-13.706,0s-0.71-0.064-1.034,1.229
					c-0.323,1.294-0.315,6.194-2.708,5.871c-2.392-0.322-1.827-2.96-1.504-4.706c0.323-1.745,0.567-4.398,0.567-4.398h19.006
					c0,0,1.215-0.149,1.361-0.976C168.257,60.644,170.041,44.821,157.411,44.821z M151.892,61.564h-3.919
					c0,0,0.733-8.77,3.679-8.883C153.548,52.608,151.892,61.564,151.892,61.564z"/>
				<path d="M150.623,87.499c-5.146,0-8.468-2.281-8.83-2.541c-9.356-6.368-3.984-26.941-3.341-29.267
					c1.297-4.629,6.926-13.37,18.959-13.37c4.046,0,7.251,1.374,9.525,4.085c4.752,5.665,3.653,15.409,2.96,19.336
					c-0.149,0.847-0.588,1.517-1.168,2.011c0.571,1.092,0.559,2.265,0.534,2.665l-0.009,0.113
					c-0.044,0.407-1.168,10.023-9.646,14.589C156.676,86.698,153.653,87.499,150.623,87.499z M157.411,47.321
					c-11.291,0-14.115,9.614-14.143,9.712c-1.376,4.991-4.082,20.103,1.391,23.828c0.059,0.04,2.406,1.638,5.964,1.638
					c2.194,0,4.419-0.6,6.614-1.781c4.957-2.669,6.488-7.899,6.905-9.908c-0.748,0.006-1.762,0.009-3.048,0.009
					c-2.82,0-6.23-0.015-8.057-0.023c-0.008,0.065-0.017,0.134-0.025,0.203c-0.282,2.241-0.869,6.905-4.787,6.905
					c-0.18,0-0.365-0.013-0.556-0.038c-1.651-0.223-2.583-1.077-3.073-1.756c-1.312-1.813-0.873-4.171-0.582-5.731l0.028-0.151
					c0.299-1.614,0.534-4.147,0.536-4.173l0.208-2.271h0.492l0.203-2.427c0.798-9.549,4.148-11.099,6.074-11.173l0.119-0.002
					c0.905,0,1.764,0.407,2.355,1.118c0.466,0.561,1.884,2.265,0.321,10.72l-0.327,1.764h11.124
					c0.729-5.021,0.544-11.08-2.042-14.163C161.808,48.073,159.945,47.321,157.411,47.321z"/>
			</g>
			<g>
				<path d="M172.486,46.319c0,0,0.108-1.308,1.906-1.253c1.796,0.055,8.959,0.219,8.959,0.219s1.421-0.376,1.145,1.742
					c-0.179,1.372-0.27,2.015-0.27,2.015s2.084-3.431,6.876-2.886c4.792,0.544,7.84,5.281,7.187,9.583
					c-0.654,4.303-1.646,12.47-1.646,12.47s-0.289,1.307-1.542,1.307c-1.252,0-9.542,0-9.542,0s-1.233-0.24-0.904-2.123
					c0.335-1.92,0.768-5.535,0.768-5.535s0.532-1.892-0.884-2.273c-1.416-0.381-1.961,4.215-2.396,5.63
					c-0.436,1.416-2.312,17.316-2.312,17.316s-0.326,2.286-1.633,2.45c-1.308,0.163-9.693,0-9.693,0s-1.906,0.163-1.198-2.723
					S172.486,46.319,172.486,46.319z"/>
				<path d="M175.103,87.553c-2.659,0-6.046-0.062-6.577-0.071l-0.077,0.001c-1.169,0-2.245-0.516-2.95-1.415
					c-0.86-1.098-1.069-2.579-0.622-4.405c0.496-2.021,3.335-22.408,5.126-35.643c0.163-1.423,1.412-3.454,4.28-3.454l0.185,0.003
					c1.607,0.049,7.521,0.185,8.725,0.212c0.118-0.013,0.25-0.021,0.394-0.021c0.999,0,1.9,0.401,2.54,1.13
					c0.109,0.123,0.208,0.254,0.298,0.392c1.375-0.542,3.1-0.819,4.958-0.608c2.837,0.322,5.382,1.783,7.167,4.115
					c0.871,1.137,1.926-5.185,2.312-3.849c0.43,1.491,0.129,10.655-0.103,12.177c-0.641,4.216-1.626,12.313-1.636,12.396
					l-0.041,0.237c-0.348,1.574-1.742,3.268-3.983,3.268l-10.02-0.046c-0.431-0.084-0.906-0.279-1.348-0.594
					c-0.427,3.24-0.95,7.467-1.42,11.447c-0.283,1.986-1.442,4.341-3.804,4.638C178.143,87.507,177.454,87.553,175.103,87.553z
					 M169.811,82.503c1.33,0.021,3.482,0.05,5.292,0.05c1.081,0,1.752-0.011,2.165-0.022c0.043-0.138,0.077-0.277,0.087-0.354
					c0.564-4.788,1.945-16.225,2.398-17.698c0.084-0.273,0.168-0.688,0.27-1.16c0.6-2.788,1.346-6.257,4.352-6.257
					c0.273,0,0.547,0.036,0.813,0.108c0.99,0.267,1.805,0.891,2.297,1.757c0.739,1.301,0.549,2.73,0.401,3.382
					c-0.076,0.622-0.363,2.949-0.637,4.707h7.02c0.277-2.246,1.016-8.154,1.547-11.652c0.232-1.526-0.23-3.223-1.236-4.536
					c-0.952-1.243-2.287-2.021-3.761-2.188c-3.023-0.343-4.428,1.658-4.48,1.737l-6.113,9.257l1.524-10.941
					c0.001-0.007,0.044-0.312,0.128-0.94c-1.946-0.046-5.393-0.127-7.04-0.172C174.042,53.454,170.645,78.369,169.811,82.503z"/>
			</g>
			<g>
				<path d="M255.793,54.326l-4.685-8.217l-7.034,8.62l-3.637,27.793c0,0,0.27,2.155,5.702,2.515
					c5.434,0.358,6.118-2.449,6.118-2.449L255.793,54.326z"/>
				<path d="M247.069,87.568C247.068,87.568,247.068,87.568,247.069,87.568c-0.346,0-0.71-0.012-1.093-0.037
					c-6.953-0.46-7.896-3.713-8.019-4.698l-0.04-0.317l3.771-28.815l10.655-19.696l6.901,12.105l-4.558,37.07
					C254.578,83.629,253.435,87.568,247.069,87.568z M243.048,81.84c0.479,0.251,1.481,0.585,3.257,0.703
					c0.268,0.018,0.522,0.025,0.763,0.025h0.001c1.728,0,2.512-0.444,2.761-0.704l3.38-27.022l-2.468-4.328l-4.28,5.245
					L243.048,81.84z"/>
			</g>
			<g>
				<ellipse cx="251.633" cy="38.358" rx="6.75" ry="6.249"/>
				<path d="M251.633,47.107c-5.101,0-9.25-3.925-9.25-8.749c0-1.747-0.37-11.767,0.566-13.134c1.648-2.41,5.43,4.383,8.684,4.383
					c3.631,0,7.626-5.587,9.14-2.7c0.612,1.168,0.11,10.061,0.11,11.451C260.883,43.183,256.734,47.107,251.633,47.107z
					 M251.633,34.607c-2.344,0-4.25,1.683-4.25,3.751c0,2.067,1.906,3.749,4.25,3.749s4.25-1.682,4.25-3.749
					C255.883,36.29,253.977,34.607,251.633,34.607z"/>
			</g>
			<g>
				<path d="M88.833,69.683l8.133,15.25l14.583-16l6.75-51.583c0,0-0.5-4-10.583-4.667s-11.833,4.667-11.833,4.667L88.833,69.683z"
					/>
				<path d="M96.428,89.235l-10.18-19.088l7.26-53.578c0.086-0.263,2.232-6.445,12.515-6.445c0.588,0,1.208,0.02,1.859,0.063
					c11.558,0.764,12.773,5.841,12.899,6.851l0.04,0.317l-6.894,52.68L96.428,89.235z M91.418,69.218l6.086,11.412l11.668-12.801
					l6.561-50.14c-0.571-0.742-2.728-2.151-8.183-2.512c-0.535-0.036-1.045-0.052-1.529-0.052c-5.669,0-7.35,2.279-7.711,2.919
					L91.418,69.218z"/>
			</g>
			<g>
				<path d="M239.973,46.979c-1.625,0-7.5-0.125-7.5-0.125s-1.5-0.25-2.25,1.75s-0.75,2-0.75,2s-2.75-4.625-8.125-4.875
					s-13.465,3.004-15.125,10.25c-1.708,7.459-8.792,27.138,8.583,28.375c0,0,9.625,1.084,12.542-7l-1.125,5
					c0,0-0.125,1.625,1.375,1.75s8.25,0,8.25,0s1,0.125,1.375-2.75s4.125-32.25,4.125-32.25S241.598,46.979,239.973,46.979z
					 M221.264,64.604c-0.332,2.333-1.582,9.834-3.833,9.584c-2.25-0.25-0.542-9.129-0.542-9.129s1.625-7.372,3.042-7.372
					C221.348,57.687,221.598,62.271,221.264,64.604z"/>
				<path d="M215.943,86.902c-0.697,0-1.177-0.04-1.355-0.059c-5.04-0.367-8.769-2.187-11.084-5.408
					c-4.729-6.58-1.989-17.161-0.352-23.482c0.245-0.945,0.466-1.8,0.634-2.533c1.816-7.928,10.103-12.205,16.979-12.205
					c0.236,0,0.471,0.006,0.7,0.017c3.185,0.147,5.619,1.501,7.305,2.896c1.018-1.289,2.402-1.783,3.542-1.783
					c0.13,0,0.24,0.006,0.329,0.013c0.822,0.017,5.876,0.122,7.333,0.122c1.116,0,2.121,0.438,2.828,1.232
					c1.199,1.35,1.092,3.161,1.029,3.685c-0.003,0.024-3.753,29.405-4.128,32.281c-0.58,4.447-2.876,4.928-3.836,4.928h0h-0.04
					c-0.459,0.008-3.174,0.055-5.423,0.055c-2.01,0-2.683-0.037-3.013-0.064c-1.441-0.12-2.461-0.867-3.055-1.851
					C222.015,86.143,219.155,86.902,215.943,86.902z M220.765,48.215c-4.235,0-10.79,2.582-12.104,8.322
					c-0.177,0.772-0.41,1.673-0.668,2.669c-1.417,5.474-3.79,14.635-0.428,19.312c1.434,1.995,3.861,3.089,7.42,3.342l0.102,0.01
					c0.044,0.005,0.363,0.033,0.857,0.033c2.654,0,7.359-0.701,9.053-5.397l4.791,1.397l-0.843,3.748
					c0.368,0.005,0.844,0.009,1.46,0.009c1.475,0,3.153-0.021,4.241-0.036c0.034-0.16,0.068-0.355,0.099-0.593
					c0.341-2.614,3.472-27.141,4.038-31.562c-2.025-0.025-5.319-0.094-6.166-0.111c-0.016,0.033-0.033,0.074-0.052,0.124
					l-2.579,6.876l-2.661-4.477c-0.078-0.127-2.18-3.473-6.092-3.655C221.079,48.219,220.922,48.215,220.765,48.215z
					 M217.541,76.693c-0.127,0-0.256-0.007-0.385-0.021c-0.935-0.104-1.769-0.594-2.349-1.381
					c-1.594-2.163-1.082-7.016-0.373-10.705c1.913-8.678,3.84-9.399,5.498-9.399c0.938,0,1.81,0.411,2.457,1.157
					c1.81,2.087,1.575,7.043,1.35,8.614C222.259,75.359,219.649,76.693,217.541,76.693z"/>
			</g>
			<rect x="21.069" y="31.357" width="14" height="39.125"/>
		</g>
	</g>
	<g>
		<g>
			<path d="M26.819,37.451c0,0-0.646,5.716-1,7.861c-0.312,1.89,1.125,1.921,1.125,1.921h9.709c0,0-1,6.625-8.666,6.459
				c-8.943-0.193-7.873-10.903-7.75-13.334c0.256-5.083,3.145-13.812,3.145-13.812s0.814-2.812,3.064-2.812
				c2.688,0,2.029,3.875,2.029,3.875S28.36,28.448,28,30.24c-0.192,0.957,0.24,1.29,1.068,1.321c6.484,0,16.538,0.077,22.047,0.077
				c2.25,0,2.828-1.837,2.828-1.837S58.496,6.479,30.319,6.479C15.017,6.229,8.36,22.732,8.36,22.732S0.804,39.937,3.479,52.918
				c1.163,5.645,2.368,7.336,4.007,10.023c0,0,5.843,9.838,16.917,11.215c11,1.368,16.666-1.924,21.166-7.299
				s5.635-20.538,6.75-27.75c0.562-3.638-0.816-3.638-2.518-3.938c0,0-14.701-0.062-20.514,0
				C27.094,35.193,26.819,37.451,26.819,37.451z"/>
			<path d="M29.101,76.966c-1.566,0-3.251-0.11-5.006-0.329C11.945,75.126,5.601,64.663,5.337,64.218l-0.304-0.495
				c-1.518-2.47-2.829-4.603-4.003-10.3c-2.803-13.605,4.72-30.963,5.041-31.696c0.264-0.657,7.349-17.75,23.904-17.75L30.36,3.98
				c9.886,0,17.191,2.758,21.672,8.198c6.313,7.665,4.448,17.679,4.366,18.102l-0.069,0.271c-0.314,0.999-1.274,2.515-3.093,3.212
				c1.245,0.903,2.043,2.561,1.554,5.727c-0.197,1.274-0.395,2.8-0.611,4.477c-1.068,8.239-2.53,19.524-6.692,24.496
				C42.562,74.344,36.892,76.966,29.101,76.966z M29.975,8.977c-13.152,0-19.238,14.548-19.298,14.695
				c-0.1,0.23-7.229,16.709-4.75,28.741c0.997,4.837,1.939,6.371,3.365,8.692l0.328,0.534c0.064,0.107,5.417,8.833,15.091,10.036
				c1.552,0.192,3.028,0.29,4.389,0.29c6.343,0,10.559-1.944,14.551-6.713c3.226-3.854,4.635-14.731,5.567-21.93
				c0.223-1.723,0.427-3.289,0.629-4.598c0.07-0.454,0.094-0.775,0.098-0.995c-0.09-0.016-0.183-0.032-0.264-0.045l-0.098-0.017
				c-1.794-0.007-14.831-0.058-20.244,0c-0.021,0.049-0.042,0.108-0.05,0.154c-0.012,0.125-0.493,4.376-0.855,6.909h11.123
				l-0.434,2.873c-0.449,2.971-3.295,8.589-10.856,8.589l-0.336-0.004c-2.971-0.063-5.377-1.071-7.151-2.994
				c-3.579-3.88-3.204-10.212-3.062-12.596l0.021-0.369c0.27-5.359,3.146-14.103,3.268-14.472c0.469-1.625,2.179-4.527,5.438-4.527
				c1.354,0,2.555,0.538,3.379,1.514c1.594,1.887,1.209,4.728,1.115,5.28c0-0.001,0-0.001,0-0.001c0.001,0-0.047,0.346-0.171,1.038
				c3.036,0.004,6.676,0.022,10.191,0.039c3.833,0.019,7.517,0.036,10.156,0.036c0.23,0,0.35-0.042,0.42-0.11
				c0.211-1.512,0.906-8.519-3.391-13.703c-3.49-4.21-9.487-6.344-17.826-6.344L29.975,8.977z M26.044,26.689
				c-0.108,0.177-0.208,0.382-0.27,0.578c-0.048,0.147-2.806,8.534-3.041,13.216l-0.023,0.412c-0.107,1.804-0.39,6.594,1.747,8.91
				c0.829,0.898,2.001,1.353,3.584,1.387l0.228,0.002c2.068,0,3.422-0.658,4.305-1.462h-5.629c-0.856-0.018-1.996-0.377-2.789-1.333
				c-0.525-0.633-1.091-1.754-0.803-3.496c0.34-2.056,0.976-7.677,0.982-7.733c0.152-1.248,0.914-2.908,2.434-3.823
				c-0.261-0.19-0.459-0.396-0.611-0.588c-0.441-0.56-0.905-1.537-0.608-3.012c0.335-1.667,0.448-2.473,0.449-2.48
				C26.027,27.083,26.042,26.881,26.044,26.689z"/>
		</g>
		<g>
			<path d="M87.444,36.375c-1.625,0-7.5-0.125-7.5-0.125s-1.5-0.25-2.25,1.75s-0.75,3.008-0.75,3.008s-2.75-4.625-8.125-4.875
				s-13.465,3.004-15.125,10.25c-1.708,7.459-8.792,27.138,8.583,28.375c0,0,9.625,1.084,12.542-7l-1.125,5
				c0,0-0.125,1.625,1.375,1.75s8.25,0,8.25,0s1,0.125,1.375-2.75S88.819,38.5,88.819,38.5S89.069,36.375,87.444,36.375z
				 M65.992,53.229c-0.351,2.33-2.423,12.079-4.673,11.829s0.683-12.96,0.683-12.96s2.484-9.533,3.9-9.533
				S66.902,47.191,65.992,53.229z"/>
			<path d="M63.414,77.308c-0.697,0-1.178-0.04-1.355-0.059c-5.04-0.367-8.769-2.187-11.084-5.408
				c-4.729-6.58-1.989-17.161-0.352-23.482c0.245-0.945,0.466-1.8,0.634-2.533c1.816-7.927,10.103-12.205,16.979-12.205
				c0.236,0,0.471,0.005,0.7,0.016c2.916,0.135,5.201,1.28,6.861,2.542c1.027-1.779,2.669-2.438,3.986-2.438
				c0.13,0,0.24,0.005,0.329,0.013c0.822,0.017,5.876,0.122,7.333,0.122c1.117,0,2.121,0.438,2.828,1.233
				c1.199,1.349,1.091,3.161,1.03,3.684c-0.155,1.255-3.757,30.439-4.129,33.29c-0.58,4.447-2.875,4.928-3.835,4.928c0,0,0,0,0,0
				h-0.04c-0.459,0.008-3.174,0.055-5.423,0.055c-2.01,0-2.683-0.037-3.013-0.064c-1.441-0.12-2.461-0.867-3.055-1.851
				C69.486,76.548,66.625,77.308,63.414,77.308z M68.235,38.621c-4.235,0-10.79,2.582-12.104,8.322
				c-0.177,0.772-0.41,1.673-0.668,2.669c-1.417,5.474-3.79,14.635-0.428,19.312c1.434,1.995,3.861,3.089,7.42,3.342l0.102,0.01
				c0.044,0.005,0.363,0.033,0.857,0.033c2.654,0,7.359-0.701,9.053-5.397l4.791,1.397l-0.843,3.748
				c0.368,0.005,0.844,0.009,1.46,0.009c1.475,0,3.153-0.021,4.241-0.036c0.034-0.16,0.068-0.355,0.099-0.593
				c0.339-2.596,3.486-28.08,4.04-32.57c-2.024-0.026-5.321-0.094-6.168-0.112c-0.016,0.034-0.033,0.075-0.052,0.125
				c-0.544,1.45-0.592,2.195-0.592,2.202v9.097l-4.647-7.891c-0.078-0.127-2.18-3.473-6.092-3.655
				C68.55,38.624,68.393,38.621,68.235,38.621z M61.404,67.563l-0.361-0.021c-0.888-0.099-1.672-0.568-2.208-1.324
				c-1.331-1.877-1.084-6.816,0.73-14.683c2.988-11.471,4.845-11.471,6.336-11.471c0.912,0,1.746,0.387,2.35,1.089
				c1.362,1.582,1.411,4.49,0.212,12.448C67.832,57.8,65.878,67.563,61.404,67.563z"/>
		</g>
		<g>
			<ellipse cx="195.182" cy="68.442" rx="6.75" ry="6.249"/>
			<path d="M195.182,77.191c-5.101,0-9.25-3.925-9.25-8.749c0-4.825,4.15-8.751,9.25-8.751c5.1,0,9.25,3.926,9.25,8.751
				C204.432,73.267,200.282,77.191,195.182,77.191z M195.182,64.691c-2.344,0-4.25,1.683-4.25,3.751c0,2.067,1.907,3.749,4.25,3.749
				c2.343,0,4.25-1.682,4.25-3.749C199.432,66.374,197.525,64.691,195.182,64.691z"/>
		</g>
		<g>
			<path d="M113.868,59.558l8.133,15.25l14.583-16l6.75-51.583c0,0-0.5-4-10.583-4.667s-11.833,4.667-11.833,4.667L113.868,59.558z"
				/>
			<path d="M121.463,79.11l-10.18-19.088l7.26-53.578C118.629,6.182,120.774,0,131.058,0c0.588,0,1.208,0.02,1.859,0.063
				c11.558,0.764,12.773,5.841,12.899,6.851l0.04,0.317l-6.894,52.68L121.463,79.11z M116.454,59.093l6.086,11.412l11.668-12.801
				l6.561-50.14c-0.571-0.742-2.728-2.151-8.183-2.512C132.052,5.017,131.542,5,131.058,5c-5.669,0-7.35,2.279-7.711,2.919
				L116.454,59.093z"/>
		</g>
		<g>
			<path d="M157.319,36.121c-13.317,0-16.458,10.113-16.458,10.113s-5.809,20.987,2.391,26.569c0,0,6.489,4.666,15.17-0.009
				c7.415-3.993,8.345-12.654,8.345-12.654s0.125-2.031-1.316-1.977c-1.809,0.068-13.706,0-13.706,0s-0.71-0.064-1.034,1.229
				c-0.323,1.294-0.315,6.194-2.708,5.871c-2.392-0.322-1.827-2.96-1.504-4.706c0.323-1.745,0.567-4.398,0.567-4.398h19.006
				c0,0,1.215-0.149,1.361-0.976C168.257,50.519,169.949,36.121,157.319,36.121z M151.892,51.439h-3.919c0,0,0.733-8.77,3.679-8.883
				C153.548,42.483,151.892,51.439,151.892,51.439z"/>
			<path d="M150.623,77.374c-5.146,0-8.468-2.281-8.83-2.541c-9.356-6.368-3.984-26.941-3.341-29.267
				c0.172-0.56,3.881-11.946,18.867-11.946c4.221,0,7.523,1.385,9.814,4.116c4.255,5.071,3.557,13.379,2.763,17.88
				c-0.149,0.847-0.588,1.517-1.168,2.011c0.571,1.092,0.559,2.265,0.534,2.665l-0.009,0.113
				c-0.044,0.407-1.168,10.023-9.646,14.589C156.676,76.573,153.653,77.374,150.623,77.374z M157.319,38.621
				c-11.344,0-14.044,8.271-14.07,8.354c-1.357,4.925-4.062,20.036,1.41,23.762c0.059,0.04,2.406,1.638,5.964,1.638
				c2.194,0,4.419-0.6,6.614-1.781c4.901-2.64,6.466-7.885,6.899-9.908c-0.748,0.006-1.759,0.009-3.042,0.009
				c-2.82,0-6.23-0.015-8.057-0.023c-0.008,0.065-0.017,0.134-0.025,0.203c-0.282,2.241-0.869,6.905-4.787,6.905
				c-0.18,0-0.365-0.013-0.556-0.038c-1.651-0.223-2.583-1.077-3.073-1.756c-1.312-1.813-0.873-4.171-0.582-5.731l0.028-0.151
				c0.299-1.614,0.534-4.147,0.536-4.173l0.209-2.271h0.491l0.203-2.427c0.798-9.549,4.148-11.099,6.074-11.173l0.119-0.002
				c0.905,0,1.764,0.408,2.355,1.119c0.466,0.561,1.884,2.265,0.321,10.72l-0.327,1.764h11.123c0.486-3.36,0.886-9.454-1.844-12.708
				C161.988,39.383,160.03,38.621,157.319,38.621z"/>
		</g>
		<g>
			<path d="M172.486,37.371c0,0,0.108-1.307,1.906-1.252c1.796,0.054,8.708,0.002,8.708,0.002s1.672-0.16,1.396,1.958
				c-0.179,1.373-0.27,2.015-0.27,2.015s2.031-4.186,6.876-3.973c4.818,0.212,7.84,5.192,7.187,9.494
				c-0.654,4.303-1.646,12.47-1.646,12.47s-0.289,1.307-1.542,1.307c-1.252,0-9.542,0-9.542,0s-1.233-0.24-0.904-2.123
				c0.335-1.92,0.768-5.535,0.768-5.535s0.532-1.892-0.884-2.273c-1.416-0.381-1.961,4.215-2.396,5.63
				c-0.436,1.416-2.312,17.316-2.312,17.316s-0.326,2.286-1.633,2.45c-1.308,0.163-9.693,0-9.693,0s-1.906,0.163-1.198-2.723
				S172.486,37.371,172.486,37.371z"/>
			<path d="M175.103,77.428c-2.659,0-6.046-0.062-6.577-0.071l-0.077,0.001c-1.169,0-2.245-0.516-2.95-1.415
				c-0.86-1.098-1.069-2.579-0.622-4.405c0.497-2.025,3.336-21.71,5.127-34.474c0.167-1.423,1.417-3.446,4.279-3.446l0.185,0.002
				c1.642,0.05,7.623,0.009,8.503,0.002l0.207-0.004c1.098,0,2.126,0.442,2.834,1.214c1.352-0.765,3.07-1.304,5.199-1.209
				c2.749,0.121,5.266,1.409,7.088,3.626c2.002,2.436,2.921,5.704,2.46,8.741c-0.641,4.217-1.626,12.313-1.636,12.396l-0.041,0.237
				c-0.348,1.574-1.742,3.268-3.983,3.268l-10.02-0.046c-0.431-0.084-0.906-0.279-1.349-0.594c-0.426,3.24-0.95,7.467-1.419,11.447
				c-0.283,1.986-1.442,4.341-3.804,4.638C178.143,77.382,177.454,77.428,175.103,77.428z M169.811,72.378
				c1.33,0.021,3.482,0.05,5.292,0.05c1.081,0,1.752-0.011,2.165-0.022c0.039-0.125,0.072-0.26,0.09-0.373
				c0.498-4.223,1.637-13.673,2.206-16.805l2.187-15.484c0.001-0.007,0.052-0.367,0.151-1.115c-1.87,0.011-5.387,0.026-7.067,0
				C174.033,44.322,170.644,68.302,169.811,72.378z M187.25,56.891h7.02c0.277-2.246,1.016-8.154,1.547-11.652
				c0.248-1.632-0.28-3.477-1.379-4.813c-0.644-0.784-1.764-1.732-3.446-1.807c-3.09-0.127-4.503,2.541-4.517,2.566l-2.827,5.826
				c0.465-0.1,1.021-0.107,1.541,0.034c0.99,0.267,1.805,0.891,2.297,1.757c0.739,1.301,0.549,2.73,0.401,3.382
				C187.811,52.806,187.523,55.133,187.25,56.891z"/>
		</g>
		<g>
			<path d="M255.793,44.201l-4.685-8.217l-7.034,8.62l-3.637,27.793c0,0,0.27,2.155,5.702,2.515
				c5.434,0.358,6.118-2.449,6.118-2.449L255.793,44.201z"/>
			<path d="M247.069,77.443C247.068,77.443,247.068,77.443,247.069,77.443c-0.346,0-0.71-0.012-1.093-0.037
				c-6.953-0.46-7.896-3.713-8.019-4.698l-0.04-0.317l3.771-28.815l9.788-11.995l6.901,12.105l-3.69,29.369
				C254.578,73.504,253.435,77.443,247.069,77.443z M243.048,71.715c0.479,0.251,1.481,0.585,3.257,0.703
				c0.268,0.018,0.522,0.025,0.763,0.025h0.001c1.728,0,2.512-0.444,2.761-0.704l3.38-27.022l-2.468-4.328l-4.28,5.245
				L243.048,71.715z"/>
		</g>
		<g>
			<ellipse cx="251.633" cy="28.233" rx="6.75" ry="6.249"/>
			<path d="M251.633,36.982c-5.101,0-9.25-3.925-9.25-8.749c0-4.825,4.149-8.751,9.25-8.751s9.25,3.926,9.25,8.751
				C260.883,33.058,256.734,36.982,251.633,36.982z M251.633,24.482c-2.344,0-4.25,1.683-4.25,3.751c0,2.067,1.906,3.749,4.25,3.749
				s4.25-1.682,4.25-3.749C255.883,26.165,253.977,24.482,251.633,24.482z"/>
		</g>
		<g>
			<path d="M88.833,59.558l8.133,15.25l14.583-16l6.75-51.583c0,0-0.5-4-10.583-4.667S95.883,7.224,95.883,7.224L88.833,59.558z"/>
			<path d="M96.428,79.11l-10.18-19.088l7.26-53.578C93.594,6.182,95.739,0,106.022,0c0.588,0,1.208,0.02,1.859,0.063
				c11.558,0.764,12.773,5.841,12.899,6.851l0.04,0.317l-6.894,52.68L96.428,79.11z M91.418,59.093l6.086,11.412l11.668-12.801
				l6.561-50.14c-0.571-0.742-2.728-2.151-8.183-2.512C107.017,5.017,106.506,5,106.022,5c-5.669,0-7.35,2.279-7.711,2.919
				L91.418,59.093z"/>
		</g>
		<g>
			<path d="M239.982,36.375c-1.625,0-7.5-0.125-7.5-0.125s-1.5-0.25-2.25,1.75s-0.75,3.008-0.75,3.008s-2.75-4.625-8.125-4.875
				s-13.465,3.004-15.125,10.25c-1.708,7.459-8.792,27.138,8.583,28.375c0,0,9.625,1.084,12.542-7l-1.125,5
				c0,0-0.125,1.625,1.375,1.75s8.25,0,8.25,0s1,0.125,1.375-2.75s4.125-33.258,4.125-33.258S241.607,36.375,239.982,36.375z
				 M218.53,53.229c-0.351,2.33-2.423,12.079-4.673,11.829s0.683-12.96,0.683-12.96s2.484-9.533,3.9-9.533
				S219.44,47.191,218.53,53.229z"/>
			<path d="M215.952,77.308c-0.697,0-1.178-0.04-1.355-0.059c-5.04-0.367-8.769-2.187-11.084-5.408
				c-4.729-6.58-1.989-17.161-0.352-23.482c0.245-0.945,0.466-1.8,0.634-2.533c1.816-7.927,10.103-12.205,16.979-12.205
				c0.236,0,0.471,0.005,0.7,0.016c2.916,0.135,5.201,1.28,6.861,2.542c1.027-1.779,2.669-2.438,3.986-2.438
				c0.13,0,0.24,0.005,0.329,0.013c0.822,0.017,5.876,0.122,7.333,0.122c1.116,0,2.121,0.438,2.828,1.233
				c1.199,1.349,1.092,3.161,1.029,3.684c-0.154,1.255-3.757,30.439-4.128,33.29c-0.58,4.447-2.876,4.928-3.836,4.928c0,0,0,0,0,0
				h-0.04c-0.459,0.008-3.174,0.055-5.423,0.055c-2.01,0-2.683-0.037-3.013-0.064c-1.441-0.12-2.461-0.867-3.055-1.851
				C222.024,76.548,219.164,77.308,215.952,77.308z M220.773,38.621c-4.235,0-10.79,2.582-12.104,8.322
				c-0.177,0.772-0.41,1.673-0.668,2.669c-1.417,5.474-3.79,14.635-0.428,19.312c1.434,1.995,3.861,3.089,7.42,3.342l0.102,0.01
				c0.044,0.005,0.363,0.033,0.857,0.033c2.654,0,7.359-0.701,9.053-5.397l4.791,1.397l-0.843,3.748
				c0.368,0.005,0.844,0.009,1.46,0.009c1.475,0,3.153-0.021,4.241-0.036c0.034-0.16,0.068-0.355,0.099-0.593
				c0.339-2.596,3.486-28.08,4.04-32.57c-2.024-0.026-5.32-0.094-6.168-0.112c-0.016,0.034-0.033,0.075-0.052,0.125
				c-0.544,1.45-0.592,2.195-0.592,2.202v9.097l-4.647-7.891c-0.078-0.127-2.18-3.473-6.092-3.655
				C221.088,38.624,220.931,38.621,220.773,38.621z M213.942,67.563l-0.361-0.021c-0.888-0.099-1.672-0.568-2.208-1.324
				c-1.331-1.877-1.084-6.816,0.73-14.683c2.988-11.471,4.845-11.471,6.336-11.471c0.912,0,1.746,0.387,2.35,1.089
				c1.362,1.582,1.411,4.49,0.212,12.448C220.37,57.8,218.416,67.563,213.942,67.563z"/>
		</g>
	</g>
</g>
<g id="WhiteTrace">
	<g>
		<linearGradient id="SVGID_3_" gradientUnits="userSpaceOnUse" x1="203.3472" y1="55.4639" x2="241.3618" y2="55.4639">
			<stop  offset="0.5407" style="stop-color:#FFFFFF"/>
			<stop  offset="1" style="stop-color:#FFFFFF"/>
		</linearGradient>
		<path fill="url(#SVGID_3_)" d="M239.973,36.375c-1.625,0-7.5-0.125-7.5-0.125s-1.5-0.25-2.25,1.75s-0.75,3.008-0.75,3.008
			s-2.75-4.625-8.125-4.875s-13.465,3.004-15.125,10.25c-1.708,7.459-8.792,27.138,8.583,28.375c0,0,9.625,1.084,12.542-7l-1.125,5
			c0,0-0.125,1.625,1.375,1.75s8.25,0,8.25,0s1,0.125,1.375-2.75s4.125-33.258,4.125-33.258S241.598,36.375,239.973,36.375z
			 M219.015,53.191c-0.226,1.496-0.784,6.236-2.167,9.25c-0.77,1.678-1.656,2.632-2.461,2.543c-0.713-0.079-1.445-1.335-1.375-3.115
			c0.15-3.838,0.922-6.981,1.297-8.752c0,0,0.716-4.717,1.79-7.51c0.644-1.675,1.802-3.042,2.333-3.042
			c0.708,0,1.624,1.131,1.583,3.042S219.47,50.173,219.015,53.191z"/>
		<linearGradient id="SVGID_4_" gradientUnits="userSpaceOnUse" x1="2.9062" y1="40.4707" x2="54.2153" y2="40.4707">
			<stop  offset="0.5407" style="stop-color:#FFFFFF"/>
			<stop  offset="1" style="stop-color:#FFFFFF"/>
		</linearGradient>
		<path fill="url(#SVGID_4_)" d="M26.819,37.451c0,0-0.646,5.716-1,7.861c-0.312,1.89,1.125,1.921,1.125,1.921h9.709
			c0,0-1,6.625-8.666,6.459c-8.943-0.193-7.873-10.903-7.75-13.334c0.256-5.083,3.145-13.812,3.145-13.812s0.814-2.812,3.064-2.812
			c2.688,0,2.029,3.875,2.029,3.875S28.36,28.448,28,30.24c-0.192,0.957,0.24,1.29,1.068,1.321c6.484,0,16.538,0.077,22.047,0.077
			c2.25,0,2.828-1.837,2.828-1.837S58.496,6.479,30.319,6.479C15.017,6.229,8.36,22.732,8.36,22.732S0.804,39.937,3.479,52.918
			c1.163,5.645,2.368,7.336,4.007,10.023c0,0,5.843,9.838,16.917,11.215c11,1.368,16.666-1.924,21.166-7.299
			s5.635-20.538,6.75-27.75c0.562-3.638-0.816-3.638-2.518-3.938c0,0-14.701-0.062-20.514,0
			C27.094,35.193,26.819,37.451,26.819,37.451z"/>
		<linearGradient id="SVGID_5_" gradientUnits="userSpaceOnUse" x1="50.8179" y1="55.4639" x2="88.8325" y2="55.4639">
			<stop  offset="0.5407" style="stop-color:#FFFFFF"/>
			<stop  offset="1" style="stop-color:#FFFFFF"/>
		</linearGradient>
		<path fill="url(#SVGID_5_)" d="M87.444,36.375c-1.625,0-7.5-0.125-7.5-0.125s-1.5-0.25-2.25,1.75s-0.75,3.008-0.75,3.008
			s-2.75-4.625-8.125-4.875s-13.465,3.004-15.125,10.25c-1.708,7.459-8.792,27.138,8.583,28.375c0,0,9.625,1.084,12.542-7l-1.125,5
			c0,0-0.125,1.625,1.375,1.75s8.25,0,8.25,0s1,0.125,1.375-2.75S88.819,38.5,88.819,38.5S89.069,36.375,87.444,36.375z
			 M66.485,53.191c-0.226,1.496-0.784,6.236-2.167,9.25c-0.77,1.678-1.656,2.632-2.461,2.543c-0.713-0.079-1.445-1.335-1.375-3.115
			c0.15-3.838,0.922-6.981,1.297-8.752c0,0,0.716-4.717,1.79-7.51c0.644-1.675,1.802-3.042,2.333-3.042
			c0.708,0,1.624,1.131,1.583,3.042S66.94,50.173,66.485,53.191z"/>
		<linearGradient id="SVGID_6_" gradientUnits="userSpaceOnUse" x1="188.4316" y1="68.4414" x2="201.9316" y2="68.4414">
			<stop  offset="0.5407" style="stop-color:#FFFFFF"/>
			<stop  offset="1" style="stop-color:#FFFFFF"/>
		</linearGradient>
		<ellipse fill="url(#SVGID_6_)" cx="195.182" cy="68.442" rx="6.75" ry="6.249"/>
		<linearGradient id="SVGID_7_" gradientUnits="userSpaceOnUse" x1="113.8682" y1="38.6538" x2="143.335" y2="38.6538">
			<stop  offset="0.5407" style="stop-color:#FFFFFF"/>
			<stop  offset="1" style="stop-color:#FFFFFF"/>
		</linearGradient>
		<path fill="url(#SVGID_7_)" d="M113.868,59.558l8.133,15.25l14.583-16l6.75-51.583c0,0-0.5-4-10.583-4.667
			s-11.833,4.667-11.833,4.667L113.868,59.558z"/>
		<linearGradient id="SVGID_8_" gradientUnits="userSpaceOnUse" x1="138.8643" y1="55.4971" x2="167.9995" y2="55.4971">
			<stop  offset="0.5407" style="stop-color:#FFFFFF"/>
			<stop  offset="1" style="stop-color:#FFFFFF"/>
		</linearGradient>
		<path fill="url(#SVGID_8_)" d="M157.319,36.121c-13.317,0-16.458,10.113-16.458,10.113s-5.809,20.987,2.391,26.569
			c0,0,6.489,4.666,15.17-0.009c7.415-3.993,8.345-12.654,8.345-12.654s0.125-2.031-1.316-1.977c-1.809,0.068-13.706,0-13.706,0
			s-0.71-0.064-1.034,1.229c-0.323,1.294-0.315,6.194-2.708,5.871c-2.392-0.322-1.827-2.96-1.504-4.706
			c0.323-1.745,0.567-4.398,0.567-4.398h19.006c0,0,1.215-0.149,1.361-0.976C168.257,50.519,169.949,36.121,157.319,36.121z
			 M151.892,51.439h-3.919c0,0,0.733-8.77,3.679-8.883C153.548,42.483,151.892,51.439,151.892,51.439z"/>
		<linearGradient id="SVGID_9_" gradientUnits="userSpaceOnUse" x1="167.1479" y1="55.5205" x2="198.3765" y2="55.5205">
			<stop  offset="0.5407" style="stop-color:#FFFFFF"/>
			<stop  offset="1" style="stop-color:#FFFFFF"/>
		</linearGradient>
		<path fill="url(#SVGID_9_)" d="M172.486,37.371c0,0,0.108-1.307,1.906-1.252c1.796,0.054,8.708,0.002,8.708,0.002
			s1.672-0.16,1.396,1.958c-0.179,1.373-0.27,2.015-0.27,2.015s2.031-4.186,6.876-3.973c4.818,0.212,7.84,5.192,7.187,9.494
			c-0.654,4.303-1.646,12.47-1.646,12.47s-0.289,1.307-1.542,1.307c-1.252,0-9.542,0-9.542,0s-1.233-0.24-0.904-2.123
			c0.335-1.92,0.768-5.535,0.768-5.535s0.532-1.892-0.884-2.273c-1.416-0.381-1.961,4.215-2.396,5.63
			c-0.436,1.416-2.312,17.316-2.312,17.316s-0.326,2.286-1.633,2.45c-1.308,0.163-9.693,0-9.693,0s-1.906,0.163-1.198-2.723
			S172.486,37.371,172.486,37.371z"/>
		<linearGradient id="SVGID_10_" gradientUnits="userSpaceOnUse" x1="240.438" y1="55.4639" x2="255.7935" y2="55.4639">
			<stop  offset="0.5407" style="stop-color:#FFFFFF"/>
			<stop  offset="1" style="stop-color:#FFFFFF"/>
		</linearGradient>
		<path fill="url(#SVGID_10_)" d="M255.793,44.201l-4.685-8.217l-7.034,8.62l-3.637,27.793c0,0,0.27,2.155,5.702,2.515
			c5.434,0.358,6.118-2.449,6.118-2.449L255.793,44.201z"/>
		<linearGradient id="SVGID_11_" gradientUnits="userSpaceOnUse" x1="244.8833" y1="28.2324" x2="258.3833" y2="28.2324">
			<stop  offset="0.5407" style="stop-color:#FFFFFF"/>
			<stop  offset="1" style="stop-color:#FFFFFF"/>
		</linearGradient>
		<ellipse fill="url(#SVGID_11_)" cx="251.633" cy="28.233" rx="6.75" ry="6.249"/>
		<linearGradient id="SVGID_12_" gradientUnits="userSpaceOnUse" x1="88.833" y1="38.6538" x2="118.2998" y2="38.6538">
			<stop  offset="0.5407" style="stop-color:#FFFFFF"/>
			<stop  offset="1" style="stop-color:#FFFFFF"/>
		</linearGradient>
		<path fill="url(#SVGID_12_)" d="M88.833,59.558l8.133,15.25l14.583-16l6.75-51.583c0,0-0.5-4-10.583-4.667
			S95.883,7.224,95.883,7.224L88.833,59.558z"/>
	</g>
</g>
<g id="Guides">
</g>
</svg>
