<?xml version="1.0" encoding="utf-8"?>
<!-- Generator: Adobe Illustrator 16.0.4, SVG Export Plug-In . SVG Version: 6.00 Build 0)  -->
<!DOCTYPE svg PUBLIC "-//W3C//DTD SVG 1.1//EN" "http://www.w3.org/Graphics/SVG/1.1/DTD/svg11.dtd">
<svg version="1.1" id="Layer_1" xmlns="http://www.w3.org/2000/svg" xmlns:xlink="http://www.w3.org/1999/xlink" x="0px" y="0px"
	 width="144px" height="144px" viewBox="0 0 144 144" enable-background="new 0 0 144 144" xml:space="preserve">
<rect x="-31.595" y="205.405" fill="#FFCA33" width="11.595" height="11.595"/>
<path d="M82.555,10.629l0.002,50.813h50.814c5.842,0,10.581,4.737,10.579,10.581c0,5.843-4.737,10.581-10.579,10.581H82.557v50.815
	c0,5.842-4.737,10.578-10.582,10.58c-5.841-0.002-10.579-4.739-10.581-10.58l0.001-50.815l-50.814,0.002
	C4.739,82.604,0.001,77.867,0,72.024C0,66.181,4.738,61.444,10.582,61.442l50.814,0.001l-0.001-50.814
	c0-5.843,4.738-10.579,10.58-10.58C77.819,0.048,82.557,4.786,82.555,10.629z"/>
</svg>
