<?xml version="1.0" encoding="utf-8"?>
<!-- Generator: Adobe Illustrator 16.0.0, SVG Export Plug-In . SVG Version: 6.00 Build 0)  -->
<!DOCTYPE svg PUBLIC "-//W3C//DTD SVG 1.1//EN" "http://www.w3.org/Graphics/SVG/1.1/DTD/svg11.dtd">
<svg version="1.1" id="Layer_1" xmlns="http://www.w3.org/2000/svg" xmlns:xlink="http://www.w3.org/1999/xlink" x="0px" y="0px"
	 width="144px" height="144px" viewBox="0 0 144 144" enable-background="new 0 0 144 144" xml:space="preserve">
<path d="M112.484,0.668H33.516C22.462,0.668,13.5,9.629,13.5,20.684v103.299C13.5,135.039,22.462,144,33.516,144h78.968
	c11.055,0,20.017-8.961,20.017-20.017V20.684C123.075,11.258,122.575,10.759,112.484,0.668z M72.5,129.5c-11.598,0-21-9.402-21-21
	s9.402-21,21-21s21,9.402,21,21S84.098,129.5,72.5,129.5z M119.905,55.057c0,7.435-6.027,13.463-13.462,13.463l-69.478,0.001
	c-7.438,0-13.464-6.029-13.464-13.464V26.14c0-7.434,6.027-13.463,13.464-13.463h69.478c5.02,5.02,8.146,8.148,13.462,13.463V55.057
	z"/>
</svg>
