<?xml version="1.0" encoding="utf-8"?>
<!-- Generator: Adobe Illustrator 16.0.4, SVG Export Plug-In . SVG Version: 6.00 Build 0)  -->
<!DOCTYPE svg PUBLIC "-//W3C//DTD SVG 1.1//EN" "http://www.w3.org/Graphics/SVG/1.1/DTD/svg11.dtd">
<svg version="1.1" id="Layer_1" xmlns="http://www.w3.org/2000/svg" xmlns:xlink="http://www.w3.org/1999/xlink" x="0px" y="0px"
	 width="144px" height="144px" viewBox="0 0 144 144" enable-background="new 0 0 144 144" xml:space="preserve">
<path d="M18.5,68.752v54.938c0,11.056,8.962,20.017,20.016,20.017h66.968c11.055,0,20.017-8.961,20.017-20.017V68.752L72,13.089
	L18.5,68.752z M72,28.578l38.721,40.172l-77.441,0.002L72,28.578z"/>
<path d="M53,36.987V19C53,8.507,61.507,0,72,0l0,0c10.493,0,19,8.507,19,19v17.987"/>
<circle cx="100" cy="19.125" r="4.125"/>
<circle cx="108.25" cy="13.089" r="4.125"/>
<circle cx="108.25" cy="25.319" r="4.125"/>
<circle cx="116.5" cy="19.125" r="4.125"/>
<circle cx="116.5" cy="8.964" r="4.125"/>
<circle cx="116.5" cy="29.444" r="4.125"/>
</svg>
