<?xml version="1.0" encoding="utf-8"?>
<!-- Generator: Adobe Illustrator 16.0.4, SVG Export Plug-In . SVG Version: 6.00 Build 0)  -->
<!DOCTYPE svg PUBLIC "-//W3C//DTD SVG 1.1//EN" "http://www.w3.org/Graphics/SVG/1.1/DTD/svg11.dtd">
<svg version="1.1" id="Layer_1" xmlns="http://www.w3.org/2000/svg" xmlns:xlink="http://www.w3.org/1999/xlink" x="0px" y="0px"
	 width="144px" height="144px" viewBox="0 0 144 144" enable-background="new 0 0 144 144" xml:space="preserve">
<g>
	<path fill="none" d="M30.721,114.555c0,14.111,7.019,17.557,15.677,17.557h52.454c8.659,0,15.679-3.445,15.679-17.557v-2.181
		h-83.81V114.555z"/>
	<path d="M123.65,61.187H97.594V20.016C97.594,8.961,88.632,0,77.578,0H66.423C55.369,0,46.407,8.961,46.407,20.016v41.171H20.35
		c-11.055,0-20.016,8.962-20.016,20.016v11.156c0,10.64,8.31,19.318,18.791,19.954v11.378c0,11.055,8.962,20.016,20.016,20.016
		h66.969c11.054,0,20.016-8.961,20.016-20.016v-11.485c9.885-1.222,17.541-9.633,17.541-19.847V81.203
		C143.666,70.149,134.705,61.187,123.65,61.187z M114.53,114.555c0,14.111-7.02,17.557-15.679,17.557H46.397
		c-8.658,0-15.677-3.445-15.677-17.557v-2.181h83.81V114.555z"/>
</g>
</svg>
