<?xml version="1.0" encoding="utf-8"?>
<!-- Generator: Adobe Illustrator 16.0.0, SVG Export Plug-In . SVG Version: 6.00 Build 0)  -->
<!DOCTYPE svg PUBLIC "-//W3C//DTD SVG 1.1//EN" "http://www.w3.org/Graphics/SVG/1.1/DTD/svg11.dtd">
<svg version="1.1" id="Layer_1" xmlns="http://www.w3.org/2000/svg" xmlns:xlink="http://www.w3.org/1999/xlink" x="0px" y="0px"
	 width="144px" height="144px" viewBox="0 0 144 144" enable-background="new 0 0 144 144" xml:space="preserve">
<path d="M144,88.805c0-4.855-3.938-8.792-8.793-8.792h-0.432c-4.855,0-8.792,3.937-8.792,8.792v37.18H18.017v-37.18
	c0-4.855-3.937-8.792-8.792-8.792H8.792C3.937,80.013,0,83.949,0,88.805v45.375c0,0.101,0.012,0.198,0.015,0.298
	C0.012,134.577,0,134.675,0,134.775v0.434C0,140.064,3.937,144,8.792,144h126.416c4.855,0,8.792-3.936,8.792-8.791v-0.434
	c0-0.101-0.012-0.198-0.015-0.298c0.003-0.1,0.015-0.197,0.015-0.298V88.805z"/>
<path d="M45.994,43.55c-0.011,0.188-0.028,0.375-0.028,0.567v50.443c0.001,5.398,4.377,9.774,9.774,9.774h32.702
	c5.397,0,9.774-4.376,9.774-9.774V44.117c0-0.191-0.018-0.378-0.029-0.567h15.688L71.983,0.003L30.091,43.55H45.994z"/>
</svg>
